<?xml version="1.0" encoding="utf-8" standalone="no"?>
<!DOCTYPE svg PUBLIC "-//W3C//DTD SVG 1.1//EN"
  "http://www.w3.org/Graphics/SVG/1.1/DTD/svg11.dtd">
<svg xmlns:xlink="http://www.w3.org/1999/xlink" width="228.005pt" height="253.915625pt" viewBox="0 0 228.005 253.915625" xmlns="http://www.w3.org/2000/svg" version="1.1">
 <metadata>
  <rdf:RDF xmlns:dc="http://purl.org/dc/elements/1.1/" xmlns:cc="http://creativecommons.org/ns#" xmlns:rdf="http://www.w3.org/1999/02/22-rdf-syntax-ns#">
   <cc:Work>
    <dc:type rdf:resource="http://purl.org/dc/dcmitype/StillImage"/>
    <dc:date>2023-04-15T23:36:24.020025</dc:date>
    <dc:format>image/svg+xml</dc:format>
    <dc:creator>
     <cc:Agent>
      <dc:title>Matplotlib v3.5.1, https://matplotlib.org/</dc:title>
     </cc:Agent>
    </dc:creator>
   </cc:Work>
  </rdf:RDF>
 </metadata>
 <defs>
  <style type="text/css">*{stroke-linejoin: round; stroke-linecap: butt}</style>
 </defs>
 <g id="figure_1">
  <g id="patch_1">
   <path d="M 0 253.915625 
L 228.005 253.915625 
L 228.005 0 
L 0 0 
z
" style="fill: #ffffff"/>
  </g>
  <g id="axes_1">
   <g id="patch_2">
    <path d="M 10.38125 218.295 
L 219.63125 218.295 
L 219.63125 10.395 
L 10.38125 10.395 
z
" style="fill: #ffffff"/>
   </g>
   <g id="LineCollection_1">
    <path d="M 10.38125 208.845 
L 44.9075 208.845 
" clip-path="url(#p1551dd01fc)" style="fill: none; stroke: #808080; stroke-opacity: 0.4"/>
    <path d="M 10.38125 204.736304 
L 75.24875 204.736304 
" clip-path="url(#p1551dd01fc)" style="fill: none; stroke: #808080; stroke-opacity: 0.4"/>
    <path d="M 10.38125 200.627609 
L 86.7575 200.627609 
" clip-path="url(#p1551dd01fc)" style="fill: none; stroke: #808080; stroke-opacity: 0.4"/>
    <path d="M 10.38125 196.518913 
L 90.9425 196.518913 
" clip-path="url(#p1551dd01fc)" style="fill: none; stroke: #808080; stroke-opacity: 0.4"/>
    <path d="M 10.38125 192.410217 
L 98.26625 192.410217 
" clip-path="url(#p1551dd01fc)" style="fill: none; stroke: #808080; stroke-opacity: 0.4"/>
    <path d="M 10.38125 188.301522 
L 105.59 188.301522 
" clip-path="url(#p1551dd01fc)" style="fill: none; stroke: #808080; stroke-opacity: 0.4"/>
    <path d="M 10.38125 184.192826 
L 106.63625 184.192826 
" clip-path="url(#p1551dd01fc)" style="fill: none; stroke: #808080; stroke-opacity: 0.4"/>
    <path d="M 10.38125 180.08413 
L 112.91375 180.08413 
" clip-path="url(#p1551dd01fc)" style="fill: none; stroke: #808080; stroke-opacity: 0.4"/>
    <path d="M 10.38125 175.975435 
L 113.96 175.975435 
" clip-path="url(#p1551dd01fc)" style="fill: none; stroke: #808080; stroke-opacity: 0.4"/>
    <path d="M 10.38125 171.866739 
L 113.96 171.866739 
" clip-path="url(#p1551dd01fc)" style="fill: none; stroke: #808080; stroke-opacity: 0.4"/>
    <path d="M 10.38125 167.758043 
L 116.0525 167.758043 
" clip-path="url(#p1551dd01fc)" style="fill: none; stroke: #808080; stroke-opacity: 0.4"/>
    <path d="M 10.38125 163.649348 
L 117.09875 163.649348 
" clip-path="url(#p1551dd01fc)" style="fill: none; stroke: #808080; stroke-opacity: 0.4"/>
    <path d="M 10.38125 159.540652 
L 117.09875 159.540652 
" clip-path="url(#p1551dd01fc)" style="fill: none; stroke: #808080; stroke-opacity: 0.4"/>
    <path d="M 10.38125 155.431957 
L 118.145 155.431957 
" clip-path="url(#p1551dd01fc)" style="fill: none; stroke: #808080; stroke-opacity: 0.4"/>
    <path d="M 10.38125 151.323261 
L 118.145 151.323261 
" clip-path="url(#p1551dd01fc)" style="fill: none; stroke: #808080; stroke-opacity: 0.4"/>
    <path d="M 10.38125 147.214565 
L 121.28375 147.214565 
" clip-path="url(#p1551dd01fc)" style="fill: none; stroke: #808080; stroke-opacity: 0.4"/>
    <path d="M 10.38125 143.10587 
L 123.37625 143.10587 
" clip-path="url(#p1551dd01fc)" style="fill: none; stroke: #808080; stroke-opacity: 0.4"/>
    <path d="M 10.38125 138.997174 
L 125.46875 138.997174 
" clip-path="url(#p1551dd01fc)" style="fill: none; stroke: #808080; stroke-opacity: 0.4"/>
    <path d="M 10.38125 134.888478 
L 127.56125 134.888478 
" clip-path="url(#p1551dd01fc)" style="fill: none; stroke: #808080; stroke-opacity: 0.4"/>
    <path d="M 10.38125 130.779783 
L 129.65375 130.779783 
" clip-path="url(#p1551dd01fc)" style="fill: none; stroke: #808080; stroke-opacity: 0.4"/>
    <path d="M 10.38125 126.671087 
L 132.7925 126.671087 
" clip-path="url(#p1551dd01fc)" style="fill: none; stroke: #808080; stroke-opacity: 0.4"/>
    <path d="M 10.38125 122.562391 
L 132.7925 122.562391 
" clip-path="url(#p1551dd01fc)" style="fill: none; stroke: #808080; stroke-opacity: 0.4"/>
    <path d="M 10.38125 118.453696 
L 134.885 118.453696 
" clip-path="url(#p1551dd01fc)" style="fill: none; stroke: #808080; stroke-opacity: 0.4"/>
    <path d="M 10.38125 114.345 
L 134.885 114.345 
" clip-path="url(#p1551dd01fc)" style="fill: none; stroke: #808080; stroke-opacity: 0.4"/>
    <path d="M 10.38125 110.236304 
L 134.885 110.236304 
" clip-path="url(#p1551dd01fc)" style="fill: none; stroke: #808080; stroke-opacity: 0.4"/>
    <path d="M 10.38125 106.127609 
L 134.885 106.127609 
" clip-path="url(#p1551dd01fc)" style="fill: none; stroke: #808080; stroke-opacity: 0.4"/>
    <path d="M 10.38125 102.018913 
L 136.9775 102.018913 
" clip-path="url(#p1551dd01fc)" style="fill: none; stroke: #808080; stroke-opacity: 0.4"/>
    <path d="M 10.38125 97.910217 
L 136.9775 97.910217 
" clip-path="url(#p1551dd01fc)" style="fill: none; stroke: #808080; stroke-opacity: 0.4"/>
    <path d="M 10.38125 93.801522 
L 136.9775 93.801522 
" clip-path="url(#p1551dd01fc)" style="fill: none; stroke: #808080; stroke-opacity: 0.4"/>
    <path d="M 10.38125 89.692826 
L 138.02375 89.692826 
" clip-path="url(#p1551dd01fc)" style="fill: none; stroke: #808080; stroke-opacity: 0.4"/>
    <path d="M 10.38125 85.58413 
L 139.07 85.58413 
" clip-path="url(#p1551dd01fc)" style="fill: none; stroke: #808080; stroke-opacity: 0.4"/>
    <path d="M 10.38125 81.475435 
L 145.3475 81.475435 
" clip-path="url(#p1551dd01fc)" style="fill: none; stroke: #808080; stroke-opacity: 0.4"/>
    <path d="M 10.38125 77.366739 
L 145.3475 77.366739 
" clip-path="url(#p1551dd01fc)" style="fill: none; stroke: #808080; stroke-opacity: 0.4"/>
    <path d="M 10.38125 73.258043 
L 145.3475 73.258043 
" clip-path="url(#p1551dd01fc)" style="fill: none; stroke: #808080; stroke-opacity: 0.4"/>
    <path d="M 10.38125 69.149348 
L 147.44 69.149348 
" clip-path="url(#p1551dd01fc)" style="fill: none; stroke: #808080; stroke-opacity: 0.4"/>
    <path d="M 10.38125 65.040652 
L 148.48625 65.040652 
" clip-path="url(#p1551dd01fc)" style="fill: none; stroke: #808080; stroke-opacity: 0.4"/>
    <path d="M 10.38125 60.931957 
L 148.48625 60.931957 
" clip-path="url(#p1551dd01fc)" style="fill: none; stroke: #808080; stroke-opacity: 0.4"/>
    <path d="M 10.38125 56.823261 
L 161.04125 56.823261 
" clip-path="url(#p1551dd01fc)" style="fill: none; stroke: #808080; stroke-opacity: 0.4"/>
    <path d="M 10.38125 52.714565 
L 162.0875 52.714565 
" clip-path="url(#p1551dd01fc)" style="fill: none; stroke: #808080; stroke-opacity: 0.4"/>
    <path d="M 10.38125 48.60587 
L 168.365 48.60587 
" clip-path="url(#p1551dd01fc)" style="fill: none; stroke: #808080; stroke-opacity: 0.4"/>
    <path d="M 10.38125 44.497174 
L 172.55 44.497174 
" clip-path="url(#p1551dd01fc)" style="fill: none; stroke: #808080; stroke-opacity: 0.4"/>
    <path d="M 10.38125 40.388478 
L 173.59625 40.388478 
" clip-path="url(#p1551dd01fc)" style="fill: none; stroke: #808080; stroke-opacity: 0.4"/>
    <path d="M 10.38125 36.279783 
L 175.68875 36.279783 
" clip-path="url(#p1551dd01fc)" style="fill: none; stroke: #808080; stroke-opacity: 0.4"/>
    <path d="M 10.38125 32.171087 
L 180.92 32.171087 
" clip-path="url(#p1551dd01fc)" style="fill: none; stroke: #808080; stroke-opacity: 0.4"/>
    <path d="M 10.38125 28.062391 
L 193.475 28.062391 
" clip-path="url(#p1551dd01fc)" style="fill: none; stroke: #808080; stroke-opacity: 0.4"/>
    <path d="M 10.38125 23.953696 
L 199.7525 23.953696 
" clip-path="url(#p1551dd01fc)" style="fill: none; stroke: #808080; stroke-opacity: 0.4"/>
    <path d="M 10.38125 19.845 
L 206.03 19.845 
" clip-path="url(#p1551dd01fc)" style="fill: none; stroke: #808080; stroke-opacity: 0.4"/>
   </g>
   <g id="PathCollection_1">
    <defs>
     <path id="C0_0_07b31a9cda" d="M 0 3.535534 
C 0.937635 3.535534 1.836992 3.163008 2.5 2.5 
C 3.163008 1.836992 3.535534 0.937635 3.535534 -0 
C 3.535534 -0.937635 3.163008 -1.836992 2.5 -2.5 
C 1.836992 -3.163008 0.937635 -3.535534 0 -3.535534 
C -0.937635 -3.535534 -1.836992 -3.163008 -2.5 -2.5 
C -3.163008 -1.836992 -3.535534 -0.937635 -3.535534 0 
C -3.535534 0.937635 -3.163008 1.836992 -2.5 2.5 
C -1.836992 3.163008 -0.937635 3.535534 0 3.535534 
z
"/>
    </defs>
    <g clip-path="url(#p1551dd01fc)">
     <use xlink:href="#C0_0_07b31a9cda" x="44.9075" y="208.845" style="fill: #90c1c6; stroke: #ffffff"/>
    </g>
    <g clip-path="url(#p1551dd01fc)">
     <use xlink:href="#C0_0_07b31a9cda" x="75.24875" y="204.736304" style="fill: #8cbec4; stroke: #ffffff"/>
    </g>
    <g clip-path="url(#p1551dd01fc)">
     <use xlink:href="#C0_0_07b31a9cda" x="86.7575" y="200.627609" style="fill: #89bcc2; stroke: #ffffff"/>
    </g>
    <g clip-path="url(#p1551dd01fc)">
     <use xlink:href="#C0_0_07b31a9cda" x="90.9425" y="196.518913" style="fill: #85b8c0; stroke: #ffffff"/>
    </g>
    <g clip-path="url(#p1551dd01fc)">
     <use xlink:href="#C0_0_07b31a9cda" x="98.26625" y="192.410217" style="fill: #81b4be; stroke: #ffffff"/>
    </g>
    <g clip-path="url(#p1551dd01fc)">
     <use xlink:href="#C0_0_07b31a9cda" x="105.59" y="188.301522" style="fill: #7eb1bc; stroke: #ffffff"/>
    </g>
    <g clip-path="url(#p1551dd01fc)">
     <use xlink:href="#C0_0_07b31a9cda" x="106.63625" y="184.192826" style="fill: #7baeba; stroke: #ffffff"/>
    </g>
    <g clip-path="url(#p1551dd01fc)">
     <use xlink:href="#C0_0_07b31a9cda" x="112.91375" y="180.08413" style="fill: #78abb8; stroke: #ffffff"/>
    </g>
    <g clip-path="url(#p1551dd01fc)">
     <use xlink:href="#C0_0_07b31a9cda" x="113.96" y="175.975435" style="fill: #75a8b6; stroke: #ffffff"/>
    </g>
    <g clip-path="url(#p1551dd01fc)">
     <use xlink:href="#C0_0_07b31a9cda" x="113.96" y="171.866739" style="fill: #72a5b4; stroke: #ffffff"/>
    </g>
    <g clip-path="url(#p1551dd01fc)">
     <use xlink:href="#C0_0_07b31a9cda" x="116.0525" y="167.758043" style="fill: #6fa1b2; stroke: #ffffff"/>
    </g>
    <g clip-path="url(#p1551dd01fc)">
     <use xlink:href="#C0_0_07b31a9cda" x="117.09875" y="163.649348" style="fill: #6c9eb0; stroke: #ffffff"/>
    </g>
    <g clip-path="url(#p1551dd01fc)">
     <use xlink:href="#C0_0_07b31a9cda" x="117.09875" y="159.540652" style="fill: #699bae; stroke: #ffffff"/>
    </g>
    <g clip-path="url(#p1551dd01fc)">
     <use xlink:href="#C0_0_07b31a9cda" x="118.145" y="155.431957" style="fill: #6697ac; stroke: #ffffff"/>
    </g>
    <g clip-path="url(#p1551dd01fc)">
     <use xlink:href="#C0_0_07b31a9cda" x="118.145" y="151.323261" style="fill: #6494aa; stroke: #ffffff"/>
    </g>
    <g clip-path="url(#p1551dd01fc)">
     <use xlink:href="#C0_0_07b31a9cda" x="121.28375" y="147.214565" style="fill: #6191a7; stroke: #ffffff"/>
    </g>
    <g clip-path="url(#p1551dd01fc)">
     <use xlink:href="#C0_0_07b31a9cda" x="123.37625" y="143.10587" style="fill: #5f8da5; stroke: #ffffff"/>
    </g>
    <g clip-path="url(#p1551dd01fc)">
     <use xlink:href="#C0_0_07b31a9cda" x="125.46875" y="138.997174" style="fill: #5c8aa3; stroke: #ffffff"/>
    </g>
    <g clip-path="url(#p1551dd01fc)">
     <use xlink:href="#C0_0_07b31a9cda" x="127.56125" y="134.888478" style="fill: #5a87a0; stroke: #ffffff"/>
    </g>
    <g clip-path="url(#p1551dd01fc)">
     <use xlink:href="#C0_0_07b31a9cda" x="129.65375" y="130.779783" style="fill: #57839e; stroke: #ffffff"/>
    </g>
    <g clip-path="url(#p1551dd01fc)">
     <use xlink:href="#C0_0_07b31a9cda" x="132.7925" y="126.671087" style="fill: #547f9b; stroke: #ffffff"/>
    </g>
    <g clip-path="url(#p1551dd01fc)">
     <use xlink:href="#C0_0_07b31a9cda" x="132.7925" y="122.562391" style="fill: #527b98; stroke: #ffffff"/>
    </g>
    <g clip-path="url(#p1551dd01fc)">
     <use xlink:href="#C0_0_07b31a9cda" x="134.885" y="118.453696" style="fill: #507895; stroke: #ffffff"/>
    </g>
    <g clip-path="url(#p1551dd01fc)">
     <use xlink:href="#C0_0_07b31a9cda" x="134.885" y="114.345" style="fill: #4e7493; stroke: #ffffff"/>
    </g>
    <g clip-path="url(#p1551dd01fc)">
     <use xlink:href="#C0_0_07b31a9cda" x="134.885" y="110.236304" style="fill: #4c7190; stroke: #ffffff"/>
    </g>
    <g clip-path="url(#p1551dd01fc)">
     <use xlink:href="#C0_0_07b31a9cda" x="134.885" y="106.127609" style="fill: #496d8d; stroke: #ffffff"/>
    </g>
    <g clip-path="url(#p1551dd01fc)">
     <use xlink:href="#C0_0_07b31a9cda" x="136.9775" y="102.018913" style="fill: #476a8a; stroke: #ffffff"/>
    </g>
    <g clip-path="url(#p1551dd01fc)">
     <use xlink:href="#C0_0_07b31a9cda" x="136.9775" y="97.910217" style="fill: #456687; stroke: #ffffff"/>
    </g>
    <g clip-path="url(#p1551dd01fc)">
     <use xlink:href="#C0_0_07b31a9cda" x="136.9775" y="93.801522" style="fill: #436384; stroke: #ffffff"/>
    </g>
    <g clip-path="url(#p1551dd01fc)">
     <use xlink:href="#C0_0_07b31a9cda" x="138.02375" y="89.692826" style="fill: #415f81; stroke: #ffffff"/>
    </g>
    <g clip-path="url(#p1551dd01fc)">
     <use xlink:href="#C0_0_07b31a9cda" x="139.07" y="85.58413" style="fill: #3f5c7e; stroke: #ffffff"/>
    </g>
    <g clip-path="url(#p1551dd01fc)">
     <use xlink:href="#C0_0_07b31a9cda" x="145.3475" y="81.475435" style="fill: #3d587b; stroke: #ffffff"/>
    </g>
    <g clip-path="url(#p1551dd01fc)">
     <use xlink:href="#C0_0_07b31a9cda" x="145.3475" y="77.366739" style="fill: #3b5577; stroke: #ffffff"/>
    </g>
    <g clip-path="url(#p1551dd01fc)">
     <use xlink:href="#C0_0_07b31a9cda" x="145.3475" y="73.258043" style="fill: #395174; stroke: #ffffff"/>
    </g>
    <g clip-path="url(#p1551dd01fc)">
     <use xlink:href="#C0_0_07b31a9cda" x="147.44" y="69.149348" style="fill: #374e70; stroke: #ffffff"/>
    </g>
    <g clip-path="url(#p1551dd01fc)">
     <use xlink:href="#C0_0_07b31a9cda" x="148.48625" y="65.040652" style="fill: #354b6d; stroke: #ffffff"/>
    </g>
    <g clip-path="url(#p1551dd01fc)">
     <use xlink:href="#C0_0_07b31a9cda" x="148.48625" y="60.931957" style="fill: #334769; stroke: #ffffff"/>
    </g>
    <g clip-path="url(#p1551dd01fc)">
     <use xlink:href="#C0_0_07b31a9cda" x="161.04125" y="56.823261" style="fill: #314364; stroke: #ffffff"/>
    </g>
    <g clip-path="url(#p1551dd01fc)">
     <use xlink:href="#C0_0_07b31a9cda" x="162.0875" y="52.714565" style="fill: #2f3f60; stroke: #ffffff"/>
    </g>
    <g clip-path="url(#p1551dd01fc)">
     <use xlink:href="#C0_0_07b31a9cda" x="168.365" y="48.60587" style="fill: #2d3c5c; stroke: #ffffff"/>
    </g>
    <g clip-path="url(#p1551dd01fc)">
     <use xlink:href="#C0_0_07b31a9cda" x="172.55" y="44.497174" style="fill: #2b3958; stroke: #ffffff"/>
    </g>
    <g clip-path="url(#p1551dd01fc)">
     <use xlink:href="#C0_0_07b31a9cda" x="173.59625" y="40.388478" style="fill: #293554; stroke: #ffffff"/>
    </g>
    <g clip-path="url(#p1551dd01fc)">
     <use xlink:href="#C0_0_07b31a9cda" x="175.68875" y="36.279783" style="fill: #273250; stroke: #ffffff"/>
    </g>
    <g clip-path="url(#p1551dd01fc)">
     <use xlink:href="#C0_0_07b31a9cda" x="180.92" y="32.171087" style="fill: #252f4c; stroke: #ffffff"/>
    </g>
    <g clip-path="url(#p1551dd01fc)">
     <use xlink:href="#C0_0_07b31a9cda" x="193.475" y="28.062391" style="fill: #232b48; stroke: #ffffff"/>
    </g>
    <g clip-path="url(#p1551dd01fc)">
     <use xlink:href="#C0_0_07b31a9cda" x="199.7525" y="23.953696" style="fill: #212843; stroke: #ffffff"/>
    </g>
    <g clip-path="url(#p1551dd01fc)">
     <use xlink:href="#C0_0_07b31a9cda" x="206.03" y="19.845" style="fill: #1f253f; stroke: #ffffff"/>
    </g>
   </g>
   <g id="matplotlib.axis_1">
    <g id="xtick_1">
     <g id="line2d_1">
      <defs>
       <path id="m1038eb849d" d="M 0 0 
L 0 3.5 
" style="stroke: #a9a9a9; stroke-width: 0.8"/>
      </defs>
      <g>
       <use xlink:href="#m1038eb849d" x="10.38125" y="218.295" style="fill: #a9a9a9; stroke: #a9a9a9; stroke-width: 0.8"/>
      </g>
     </g>
     <g id="text_1">
      <!-- 0 -->
      <g style="fill: #a9a9a9" transform="translate(7.2 232.893438)scale(0.1 -0.1)">
       <defs>
        <path id="DejaVuSans-30" d="M 2034 4250 
Q 1547 4250 1301 3770 
Q 1056 3291 1056 2328 
Q 1056 1369 1301 889 
Q 1547 409 2034 409 
Q 2525 409 2770 889 
Q 3016 1369 3016 2328 
Q 3016 3291 2770 3770 
Q 2525 4250 2034 4250 
z
M 2034 4750 
Q 2819 4750 3233 4129 
Q 3647 3509 3647 2328 
Q 3647 1150 3233 529 
Q 2819 -91 2034 -91 
Q 1250 -91 836 529 
Q 422 1150 422 2328 
Q 422 3509 836 4129 
Q 1250 4750 2034 4750 
z
" transform="scale(0.015625)"/>
       </defs>
       <use xlink:href="#DejaVuSans-30"/>
      </g>
     </g>
    </g>
    <g id="xtick_2">
     <g id="line2d_2">
      <g>
       <use xlink:href="#m1038eb849d" x="35.49125" y="218.295" style="fill: #a9a9a9; stroke: #a9a9a9; stroke-width: 0.8"/>
      </g>
     </g>
     <g id="text_2">
      <!-- 24 -->
      <g style="fill: #a9a9a9" transform="translate(29.12875 232.893438)scale(0.1 -0.1)">
       <defs>
        <path id="DejaVuSans-32" d="M 1228 531 
L 3431 531 
L 3431 0 
L 469 0 
L 469 531 
Q 828 903 1448 1529 
Q 2069 2156 2228 2338 
Q 2531 2678 2651 2914 
Q 2772 3150 2772 3378 
Q 2772 3750 2511 3984 
Q 2250 4219 1831 4219 
Q 1534 4219 1204 4116 
Q 875 4013 500 3803 
L 500 4441 
Q 881 4594 1212 4672 
Q 1544 4750 1819 4750 
Q 2544 4750 2975 4387 
Q 3406 4025 3406 3419 
Q 3406 3131 3298 2873 
Q 3191 2616 2906 2266 
Q 2828 2175 2409 1742 
Q 1991 1309 1228 531 
z
" transform="scale(0.015625)"/>
        <path id="DejaVuSans-34" d="M 2419 4116 
L 825 1625 
L 2419 1625 
L 2419 4116 
z
M 2253 4666 
L 3047 4666 
L 3047 1625 
L 3713 1625 
L 3713 1100 
L 3047 1100 
L 3047 0 
L 2419 0 
L 2419 1100 
L 313 1100 
L 313 1709 
L 2253 4666 
z
" transform="scale(0.015625)"/>
       </defs>
       <use xlink:href="#DejaVuSans-32"/>
       <use xlink:href="#DejaVuSans-34" x="63.623047"/>
      </g>
     </g>
    </g>
    <g id="xtick_3">
     <g id="line2d_3">
      <g>
       <use xlink:href="#m1038eb849d" x="60.60125" y="218.295" style="fill: #a9a9a9; stroke: #a9a9a9; stroke-width: 0.8"/>
      </g>
     </g>
     <g id="text_3">
      <!-- 48 -->
      <g style="fill: #a9a9a9" transform="translate(54.23875 232.893438)scale(0.1 -0.1)">
       <defs>
        <path id="DejaVuSans-38" d="M 2034 2216 
Q 1584 2216 1326 1975 
Q 1069 1734 1069 1313 
Q 1069 891 1326 650 
Q 1584 409 2034 409 
Q 2484 409 2743 651 
Q 3003 894 3003 1313 
Q 3003 1734 2745 1975 
Q 2488 2216 2034 2216 
z
M 1403 2484 
Q 997 2584 770 2862 
Q 544 3141 544 3541 
Q 544 4100 942 4425 
Q 1341 4750 2034 4750 
Q 2731 4750 3128 4425 
Q 3525 4100 3525 3541 
Q 3525 3141 3298 2862 
Q 3072 2584 2669 2484 
Q 3125 2378 3379 2068 
Q 3634 1759 3634 1313 
Q 3634 634 3220 271 
Q 2806 -91 2034 -91 
Q 1263 -91 848 271 
Q 434 634 434 1313 
Q 434 1759 690 2068 
Q 947 2378 1403 2484 
z
M 1172 3481 
Q 1172 3119 1398 2916 
Q 1625 2713 2034 2713 
Q 2441 2713 2670 2916 
Q 2900 3119 2900 3481 
Q 2900 3844 2670 4047 
Q 2441 4250 2034 4250 
Q 1625 4250 1398 4047 
Q 1172 3844 1172 3481 
z
" transform="scale(0.015625)"/>
       </defs>
       <use xlink:href="#DejaVuSans-34"/>
       <use xlink:href="#DejaVuSans-38" x="63.623047"/>
      </g>
     </g>
    </g>
    <g id="xtick_4">
     <g id="line2d_4">
      <g>
       <use xlink:href="#m1038eb849d" x="85.71125" y="218.295" style="fill: #a9a9a9; stroke: #a9a9a9; stroke-width: 0.8"/>
      </g>
     </g>
     <g id="text_4">
      <!-- 72 -->
      <g style="fill: #a9a9a9" transform="translate(79.34875 232.893438)scale(0.1 -0.1)">
       <defs>
        <path id="DejaVuSans-37" d="M 525 4666 
L 3525 4666 
L 3525 4397 
L 1831 0 
L 1172 0 
L 2766 4134 
L 525 4134 
L 525 4666 
z
" transform="scale(0.015625)"/>
       </defs>
       <use xlink:href="#DejaVuSans-37"/>
       <use xlink:href="#DejaVuSans-32" x="63.623047"/>
      </g>
     </g>
    </g>
    <g id="xtick_5">
     <g id="line2d_5">
      <g>
       <use xlink:href="#m1038eb849d" x="110.82125" y="218.295" style="fill: #a9a9a9; stroke: #a9a9a9; stroke-width: 0.8"/>
      </g>
     </g>
     <g id="text_5">
      <!-- 96 -->
      <g style="fill: #a9a9a9" transform="translate(104.45875 232.893438)scale(0.1 -0.1)">
       <defs>
        <path id="DejaVuSans-39" d="M 703 97 
L 703 672 
Q 941 559 1184 500 
Q 1428 441 1663 441 
Q 2288 441 2617 861 
Q 2947 1281 2994 2138 
Q 2813 1869 2534 1725 
Q 2256 1581 1919 1581 
Q 1219 1581 811 2004 
Q 403 2428 403 3163 
Q 403 3881 828 4315 
Q 1253 4750 1959 4750 
Q 2769 4750 3195 4129 
Q 3622 3509 3622 2328 
Q 3622 1225 3098 567 
Q 2575 -91 1691 -91 
Q 1453 -91 1209 -44 
Q 966 3 703 97 
z
M 1959 2075 
Q 2384 2075 2632 2365 
Q 2881 2656 2881 3163 
Q 2881 3666 2632 3958 
Q 2384 4250 1959 4250 
Q 1534 4250 1286 3958 
Q 1038 3666 1038 3163 
Q 1038 2656 1286 2365 
Q 1534 2075 1959 2075 
z
" transform="scale(0.015625)"/>
        <path id="DejaVuSans-36" d="M 2113 2584 
Q 1688 2584 1439 2293 
Q 1191 2003 1191 1497 
Q 1191 994 1439 701 
Q 1688 409 2113 409 
Q 2538 409 2786 701 
Q 3034 994 3034 1497 
Q 3034 2003 2786 2293 
Q 2538 2584 2113 2584 
z
M 3366 4563 
L 3366 3988 
Q 3128 4100 2886 4159 
Q 2644 4219 2406 4219 
Q 1781 4219 1451 3797 
Q 1122 3375 1075 2522 
Q 1259 2794 1537 2939 
Q 1816 3084 2150 3084 
Q 2853 3084 3261 2657 
Q 3669 2231 3669 1497 
Q 3669 778 3244 343 
Q 2819 -91 2113 -91 
Q 1303 -91 875 529 
Q 447 1150 447 2328 
Q 447 3434 972 4092 
Q 1497 4750 2381 4750 
Q 2619 4750 2861 4703 
Q 3103 4656 3366 4563 
z
" transform="scale(0.015625)"/>
       </defs>
       <use xlink:href="#DejaVuSans-39"/>
       <use xlink:href="#DejaVuSans-36" x="63.623047"/>
      </g>
     </g>
    </g>
    <g id="xtick_6">
     <g id="line2d_6">
      <g>
       <use xlink:href="#m1038eb849d" x="135.93125" y="218.295" style="fill: #a9a9a9; stroke: #a9a9a9; stroke-width: 0.8"/>
      </g>
     </g>
     <g id="text_6">
      <!-- 120 -->
      <g style="fill: #a9a9a9" transform="translate(126.3875 232.893438)scale(0.1 -0.1)">
       <defs>
        <path id="DejaVuSans-31" d="M 794 531 
L 1825 531 
L 1825 4091 
L 703 3866 
L 703 4441 
L 1819 4666 
L 2450 4666 
L 2450 531 
L 3481 531 
L 3481 0 
L 794 0 
L 794 531 
z
" transform="scale(0.015625)"/>
       </defs>
       <use xlink:href="#DejaVuSans-31"/>
       <use xlink:href="#DejaVuSans-32" x="63.623047"/>
       <use xlink:href="#DejaVuSans-30" x="127.246094"/>
      </g>
     </g>
    </g>
    <g id="xtick_7">
     <g id="line2d_7">
      <g>
       <use xlink:href="#m1038eb849d" x="161.04125" y="218.295" style="fill: #a9a9a9; stroke: #a9a9a9; stroke-width: 0.8"/>
      </g>
     </g>
     <g id="text_7">
      <!-- 144 -->
      <g style="fill: #a9a9a9" transform="translate(151.4975 232.893438)scale(0.1 -0.1)">
       <use xlink:href="#DejaVuSans-31"/>
       <use xlink:href="#DejaVuSans-34" x="63.623047"/>
       <use xlink:href="#DejaVuSans-34" x="127.246094"/>
      </g>
     </g>
    </g>
    <g id="xtick_8">
     <g id="line2d_8">
      <g>
       <use xlink:href="#m1038eb849d" x="186.15125" y="218.295" style="fill: #a9a9a9; stroke: #a9a9a9; stroke-width: 0.8"/>
      </g>
     </g>
     <g id="text_8">
      <!-- 168 -->
      <g style="fill: #a9a9a9" transform="translate(176.6075 232.893438)scale(0.1 -0.1)">
       <use xlink:href="#DejaVuSans-31"/>
       <use xlink:href="#DejaVuSans-36" x="63.623047"/>
       <use xlink:href="#DejaVuSans-38" x="127.246094"/>
      </g>
     </g>
    </g>
    <g id="xtick_9">
     <g id="line2d_9">
      <g>
       <use xlink:href="#m1038eb849d" x="211.26125" y="218.295" style="fill: #a9a9a9; stroke: #a9a9a9; stroke-width: 0.8"/>
      </g>
     </g>
     <g id="text_9">
      <!-- 192 -->
      <g style="fill: #a9a9a9" transform="translate(201.7175 232.893438)scale(0.1 -0.1)">
       <use xlink:href="#DejaVuSans-31"/>
       <use xlink:href="#DejaVuSans-39" x="63.623047"/>
       <use xlink:href="#DejaVuSans-32" x="127.246094"/>
      </g>
     </g>
    </g>
    <g id="text_10">
     <!-- Hours tracked (time of death)  -->
     <g style="fill: #696969" transform="translate(54.3275 245.051875)scale(0.08 -0.08)">
      <defs>
       <path id="DejaVuSans-48" d="M 628 4666 
L 1259 4666 
L 1259 2753 
L 3553 2753 
L 3553 4666 
L 4184 4666 
L 4184 0 
L 3553 0 
L 3553 2222 
L 1259 2222 
L 1259 0 
L 628 0 
L 628 4666 
z
" transform="scale(0.015625)"/>
       <path id="DejaVuSans-6f" d="M 1959 3097 
Q 1497 3097 1228 2736 
Q 959 2375 959 1747 
Q 959 1119 1226 758 
Q 1494 397 1959 397 
Q 2419 397 2687 759 
Q 2956 1122 2956 1747 
Q 2956 2369 2687 2733 
Q 2419 3097 1959 3097 
z
M 1959 3584 
Q 2709 3584 3137 3096 
Q 3566 2609 3566 1747 
Q 3566 888 3137 398 
Q 2709 -91 1959 -91 
Q 1206 -91 779 398 
Q 353 888 353 1747 
Q 353 2609 779 3096 
Q 1206 3584 1959 3584 
z
" transform="scale(0.015625)"/>
       <path id="DejaVuSans-75" d="M 544 1381 
L 544 3500 
L 1119 3500 
L 1119 1403 
Q 1119 906 1312 657 
Q 1506 409 1894 409 
Q 2359 409 2629 706 
Q 2900 1003 2900 1516 
L 2900 3500 
L 3475 3500 
L 3475 0 
L 2900 0 
L 2900 538 
Q 2691 219 2414 64 
Q 2138 -91 1772 -91 
Q 1169 -91 856 284 
Q 544 659 544 1381 
z
M 1991 3584 
L 1991 3584 
z
" transform="scale(0.015625)"/>
       <path id="DejaVuSans-72" d="M 2631 2963 
Q 2534 3019 2420 3045 
Q 2306 3072 2169 3072 
Q 1681 3072 1420 2755 
Q 1159 2438 1159 1844 
L 1159 0 
L 581 0 
L 581 3500 
L 1159 3500 
L 1159 2956 
Q 1341 3275 1631 3429 
Q 1922 3584 2338 3584 
Q 2397 3584 2469 3576 
Q 2541 3569 2628 3553 
L 2631 2963 
z
" transform="scale(0.015625)"/>
       <path id="DejaVuSans-73" d="M 2834 3397 
L 2834 2853 
Q 2591 2978 2328 3040 
Q 2066 3103 1784 3103 
Q 1356 3103 1142 2972 
Q 928 2841 928 2578 
Q 928 2378 1081 2264 
Q 1234 2150 1697 2047 
L 1894 2003 
Q 2506 1872 2764 1633 
Q 3022 1394 3022 966 
Q 3022 478 2636 193 
Q 2250 -91 1575 -91 
Q 1294 -91 989 -36 
Q 684 19 347 128 
L 347 722 
Q 666 556 975 473 
Q 1284 391 1588 391 
Q 1994 391 2212 530 
Q 2431 669 2431 922 
Q 2431 1156 2273 1281 
Q 2116 1406 1581 1522 
L 1381 1569 
Q 847 1681 609 1914 
Q 372 2147 372 2553 
Q 372 3047 722 3315 
Q 1072 3584 1716 3584 
Q 2034 3584 2315 3537 
Q 2597 3491 2834 3397 
z
" transform="scale(0.015625)"/>
       <path id="DejaVuSans-20" transform="scale(0.015625)"/>
       <path id="DejaVuSans-74" d="M 1172 4494 
L 1172 3500 
L 2356 3500 
L 2356 3053 
L 1172 3053 
L 1172 1153 
Q 1172 725 1289 603 
Q 1406 481 1766 481 
L 2356 481 
L 2356 0 
L 1766 0 
Q 1100 0 847 248 
Q 594 497 594 1153 
L 594 3053 
L 172 3053 
L 172 3500 
L 594 3500 
L 594 4494 
L 1172 4494 
z
" transform="scale(0.015625)"/>
       <path id="DejaVuSans-61" d="M 2194 1759 
Q 1497 1759 1228 1600 
Q 959 1441 959 1056 
Q 959 750 1161 570 
Q 1363 391 1709 391 
Q 2188 391 2477 730 
Q 2766 1069 2766 1631 
L 2766 1759 
L 2194 1759 
z
M 3341 1997 
L 3341 0 
L 2766 0 
L 2766 531 
Q 2569 213 2275 61 
Q 1981 -91 1556 -91 
Q 1019 -91 701 211 
Q 384 513 384 1019 
Q 384 1609 779 1909 
Q 1175 2209 1959 2209 
L 2766 2209 
L 2766 2266 
Q 2766 2663 2505 2880 
Q 2244 3097 1772 3097 
Q 1472 3097 1187 3025 
Q 903 2953 641 2809 
L 641 3341 
Q 956 3463 1253 3523 
Q 1550 3584 1831 3584 
Q 2591 3584 2966 3190 
Q 3341 2797 3341 1997 
z
" transform="scale(0.015625)"/>
       <path id="DejaVuSans-63" d="M 3122 3366 
L 3122 2828 
Q 2878 2963 2633 3030 
Q 2388 3097 2138 3097 
Q 1578 3097 1268 2742 
Q 959 2388 959 1747 
Q 959 1106 1268 751 
Q 1578 397 2138 397 
Q 2388 397 2633 464 
Q 2878 531 3122 666 
L 3122 134 
Q 2881 22 2623 -34 
Q 2366 -91 2075 -91 
Q 1284 -91 818 406 
Q 353 903 353 1747 
Q 353 2603 823 3093 
Q 1294 3584 2113 3584 
Q 2378 3584 2631 3529 
Q 2884 3475 3122 3366 
z
" transform="scale(0.015625)"/>
       <path id="DejaVuSans-6b" d="M 581 4863 
L 1159 4863 
L 1159 1991 
L 2875 3500 
L 3609 3500 
L 1753 1863 
L 3688 0 
L 2938 0 
L 1159 1709 
L 1159 0 
L 581 0 
L 581 4863 
z
" transform="scale(0.015625)"/>
       <path id="DejaVuSans-65" d="M 3597 1894 
L 3597 1613 
L 953 1613 
Q 991 1019 1311 708 
Q 1631 397 2203 397 
Q 2534 397 2845 478 
Q 3156 559 3463 722 
L 3463 178 
Q 3153 47 2828 -22 
Q 2503 -91 2169 -91 
Q 1331 -91 842 396 
Q 353 884 353 1716 
Q 353 2575 817 3079 
Q 1281 3584 2069 3584 
Q 2775 3584 3186 3129 
Q 3597 2675 3597 1894 
z
M 3022 2063 
Q 3016 2534 2758 2815 
Q 2500 3097 2075 3097 
Q 1594 3097 1305 2825 
Q 1016 2553 972 2059 
L 3022 2063 
z
" transform="scale(0.015625)"/>
       <path id="DejaVuSans-64" d="M 2906 2969 
L 2906 4863 
L 3481 4863 
L 3481 0 
L 2906 0 
L 2906 525 
Q 2725 213 2448 61 
Q 2172 -91 1784 -91 
Q 1150 -91 751 415 
Q 353 922 353 1747 
Q 353 2572 751 3078 
Q 1150 3584 1784 3584 
Q 2172 3584 2448 3432 
Q 2725 3281 2906 2969 
z
M 947 1747 
Q 947 1113 1208 752 
Q 1469 391 1925 391 
Q 2381 391 2643 752 
Q 2906 1113 2906 1747 
Q 2906 2381 2643 2742 
Q 2381 3103 1925 3103 
Q 1469 3103 1208 2742 
Q 947 2381 947 1747 
z
" transform="scale(0.015625)"/>
       <path id="DejaVuSans-28" d="M 1984 4856 
Q 1566 4138 1362 3434 
Q 1159 2731 1159 2009 
Q 1159 1288 1364 580 
Q 1569 -128 1984 -844 
L 1484 -844 
Q 1016 -109 783 600 
Q 550 1309 550 2009 
Q 550 2706 781 3412 
Q 1013 4119 1484 4856 
L 1984 4856 
z
" transform="scale(0.015625)"/>
       <path id="DejaVuSans-69" d="M 603 3500 
L 1178 3500 
L 1178 0 
L 603 0 
L 603 3500 
z
M 603 4863 
L 1178 4863 
L 1178 4134 
L 603 4134 
L 603 4863 
z
" transform="scale(0.015625)"/>
       <path id="DejaVuSans-6d" d="M 3328 2828 
Q 3544 3216 3844 3400 
Q 4144 3584 4550 3584 
Q 5097 3584 5394 3201 
Q 5691 2819 5691 2113 
L 5691 0 
L 5113 0 
L 5113 2094 
Q 5113 2597 4934 2840 
Q 4756 3084 4391 3084 
Q 3944 3084 3684 2787 
Q 3425 2491 3425 1978 
L 3425 0 
L 2847 0 
L 2847 2094 
Q 2847 2600 2669 2842 
Q 2491 3084 2119 3084 
Q 1678 3084 1418 2786 
Q 1159 2488 1159 1978 
L 1159 0 
L 581 0 
L 581 3500 
L 1159 3500 
L 1159 2956 
Q 1356 3278 1631 3431 
Q 1906 3584 2284 3584 
Q 2666 3584 2933 3390 
Q 3200 3197 3328 2828 
z
" transform="scale(0.015625)"/>
       <path id="DejaVuSans-66" d="M 2375 4863 
L 2375 4384 
L 1825 4384 
Q 1516 4384 1395 4259 
Q 1275 4134 1275 3809 
L 1275 3500 
L 2222 3500 
L 2222 3053 
L 1275 3053 
L 1275 0 
L 697 0 
L 697 3053 
L 147 3053 
L 147 3500 
L 697 3500 
L 697 3744 
Q 697 4328 969 4595 
Q 1241 4863 1831 4863 
L 2375 4863 
z
" transform="scale(0.015625)"/>
       <path id="DejaVuSans-68" d="M 3513 2113 
L 3513 0 
L 2938 0 
L 2938 2094 
Q 2938 2591 2744 2837 
Q 2550 3084 2163 3084 
Q 1697 3084 1428 2787 
Q 1159 2491 1159 1978 
L 1159 0 
L 581 0 
L 581 4863 
L 1159 4863 
L 1159 2956 
Q 1366 3272 1645 3428 
Q 1925 3584 2291 3584 
Q 2894 3584 3203 3211 
Q 3513 2838 3513 2113 
z
" transform="scale(0.015625)"/>
       <path id="DejaVuSans-29" d="M 513 4856 
L 1013 4856 
Q 1481 4119 1714 3412 
Q 1947 2706 1947 2009 
Q 1947 1309 1714 600 
Q 1481 -109 1013 -844 
L 513 -844 
Q 928 -128 1133 580 
Q 1338 1288 1338 2009 
Q 1338 2731 1133 3434 
Q 928 4138 513 4856 
z
" transform="scale(0.015625)"/>
      </defs>
      <use xlink:href="#DejaVuSans-48"/>
      <use xlink:href="#DejaVuSans-6f" x="75.195312"/>
      <use xlink:href="#DejaVuSans-75" x="136.376953"/>
      <use xlink:href="#DejaVuSans-72" x="199.755859"/>
      <use xlink:href="#DejaVuSans-73" x="240.869141"/>
      <use xlink:href="#DejaVuSans-20" x="292.96875"/>
      <use xlink:href="#DejaVuSans-74" x="324.755859"/>
      <use xlink:href="#DejaVuSans-72" x="363.964844"/>
      <use xlink:href="#DejaVuSans-61" x="405.078125"/>
      <use xlink:href="#DejaVuSans-63" x="466.357422"/>
      <use xlink:href="#DejaVuSans-6b" x="521.337891"/>
      <use xlink:href="#DejaVuSans-65" x="575.623047"/>
      <use xlink:href="#DejaVuSans-64" x="637.146484"/>
      <use xlink:href="#DejaVuSans-20" x="700.623047"/>
      <use xlink:href="#DejaVuSans-28" x="732.410156"/>
      <use xlink:href="#DejaVuSans-74" x="771.423828"/>
      <use xlink:href="#DejaVuSans-69" x="810.632812"/>
      <use xlink:href="#DejaVuSans-6d" x="838.416016"/>
      <use xlink:href="#DejaVuSans-65" x="935.828125"/>
      <use xlink:href="#DejaVuSans-20" x="997.351562"/>
      <use xlink:href="#DejaVuSans-6f" x="1029.138672"/>
      <use xlink:href="#DejaVuSans-66" x="1090.320312"/>
      <use xlink:href="#DejaVuSans-20" x="1125.525391"/>
      <use xlink:href="#DejaVuSans-64" x="1157.3125"/>
      <use xlink:href="#DejaVuSans-65" x="1220.789062"/>
      <use xlink:href="#DejaVuSans-61" x="1282.3125"/>
      <use xlink:href="#DejaVuSans-74" x="1343.591797"/>
      <use xlink:href="#DejaVuSans-68" x="1382.800781"/>
      <use xlink:href="#DejaVuSans-29" x="1446.179688"/>
      <use xlink:href="#DejaVuSans-20" x="1485.193359"/>
     </g>
    </g>
   </g>
   <g id="matplotlib.axis_2"/>
   <g id="line2d_10">
    <path d="M 134.684654 218.295 
L 134.684654 10.395 
" clip-path="url(#p1551dd01fc)" style="fill: none; stroke-dasharray: 5.55,2.4; stroke-dashoffset: 0; stroke: #d73027; stroke-opacity: 0.4; stroke-width: 1.5"/>
   </g>
   <g id="patch_3">
    <path d="M 10.38125 218.295 
L 219.63125 218.295 
" style="fill: none; stroke: #a9a9a9; stroke-width: 0.8; stroke-linejoin: miter; stroke-linecap: square"/>
   </g>
   <g id="text_11">
    <!-- Mean lifespan -->
    <g style="fill: #d73027; opacity: 0.4" transform="translate(131.974654 216.240652)rotate(-90)scale(0.08 -0.08)">
     <defs>
      <path id="DejaVuSans-4d" d="M 628 4666 
L 1569 4666 
L 2759 1491 
L 3956 4666 
L 4897 4666 
L 4897 0 
L 4281 0 
L 4281 4097 
L 3078 897 
L 2444 897 
L 1241 4097 
L 1241 0 
L 628 0 
L 628 4666 
z
" transform="scale(0.015625)"/>
      <path id="DejaVuSans-6e" d="M 3513 2113 
L 3513 0 
L 2938 0 
L 2938 2094 
Q 2938 2591 2744 2837 
Q 2550 3084 2163 3084 
Q 1697 3084 1428 2787 
Q 1159 2491 1159 1978 
L 1159 0 
L 581 0 
L 581 3500 
L 1159 3500 
L 1159 2956 
Q 1366 3272 1645 3428 
Q 1925 3584 2291 3584 
Q 2894 3584 3203 3211 
Q 3513 2838 3513 2113 
z
" transform="scale(0.015625)"/>
      <path id="DejaVuSans-6c" d="M 603 4863 
L 1178 4863 
L 1178 0 
L 603 0 
L 603 4863 
z
" transform="scale(0.015625)"/>
      <path id="DejaVuSans-70" d="M 1159 525 
L 1159 -1331 
L 581 -1331 
L 581 3500 
L 1159 3500 
L 1159 2969 
Q 1341 3281 1617 3432 
Q 1894 3584 2278 3584 
Q 2916 3584 3314 3078 
Q 3713 2572 3713 1747 
Q 3713 922 3314 415 
Q 2916 -91 2278 -91 
Q 1894 -91 1617 61 
Q 1341 213 1159 525 
z
M 3116 1747 
Q 3116 2381 2855 2742 
Q 2594 3103 2138 3103 
Q 1681 3103 1420 2742 
Q 1159 2381 1159 1747 
Q 1159 1113 1420 752 
Q 1681 391 2138 391 
Q 2594 391 2855 752 
Q 3116 1113 3116 1747 
z
" transform="scale(0.015625)"/>
     </defs>
     <use xlink:href="#DejaVuSans-4d"/>
     <use xlink:href="#DejaVuSans-65" x="86.279297"/>
     <use xlink:href="#DejaVuSans-61" x="147.802734"/>
     <use xlink:href="#DejaVuSans-6e" x="209.082031"/>
     <use xlink:href="#DejaVuSans-20" x="272.460938"/>
     <use xlink:href="#DejaVuSans-6c" x="304.248047"/>
     <use xlink:href="#DejaVuSans-69" x="332.03125"/>
     <use xlink:href="#DejaVuSans-66" x="359.814453"/>
     <use xlink:href="#DejaVuSans-65" x="395.019531"/>
     <use xlink:href="#DejaVuSans-73" x="456.542969"/>
     <use xlink:href="#DejaVuSans-70" x="508.642578"/>
     <use xlink:href="#DejaVuSans-61" x="572.119141"/>
     <use xlink:href="#DejaVuSans-6e" x="633.398438"/>
    </g>
   </g>
   <g id="legend_1"/>
  </g>
 </g>
 <defs>
  <clipPath id="p1551dd01fc">
   <rect x="10.38125" y="10.395" width="209.25" height="207.9"/>
  </clipPath>
 </defs>
</svg>
